<?xml version="1.0" encoding="UTF-8"?>
<svg id="Layer_2" data-name="Layer 2" xmlns="http://www.w3.org/2000/svg" viewBox="0 0 2.22 4.54">
  <defs>
    <style>
      .cls-1 {
        fill: #fff;
      }

      .cls-1, .cls-2 {
        fill-rule: evenodd;
        stroke-width: 0px;
      }

      .cls-2 {
        fill: #999;
      }
    </style>
  </defs>
  <g id="Layer_1-2" data-name="Layer 1">
    <path class="cls-2" d="m.53.61C.3,1.54.01.77.01,2.85c0,1.81-.2,1.69,1.1,1.69s1.1.14,1.1-1.64c0-.41.04-.95-.07-1.32-.11-.38-.36-.63-.45-.97.16-.09.3-.31.14-.5C1.7-.05.52-.02.41.09c-.06.06-.22.4.12.52Z"/>
    <path class="cls-1" d="m.18,2.46c-.02.28-.07,1.78.11,1.89.2.06,1.5.06,1.7,0,.13-.23.09-1.89.06-2.3-.26.02-.59.3-.84.41-.46.2-.61.05-1.02,0Z"/>
    <path class="cls-1" d="m.18,2.26c.96.42,1.15-.28,1.86-.38-.08-.6-.4-.79-.51-1.26h-.79c-.05.07-.34.62-.4.73-.14.31-.18.54-.17.91Z"/>
    <path class="cls-1" d="m.82.45c.21,0,1.2.08.86-.23-.07-.07-1.07-.07-1.15,0-.22.21.15.23.29.23Z"/>
  </g>
</svg>