<svg width="3" height="4" viewBox="0 0 3 4" fill="none" xmlns="http://www.w3.org/2000/svg">
<g clip-path="url(#clip0_48_151)">
<path fill-rule="evenodd" clip-rule="evenodd" d="M1.39998 3.04017C-0.47002 3.20017 0.11998 0.230172 1.19998 0.010172C1.80998 -0.109828 2.23998 0.860172 2.33998 1.43017C2.49998 2.28017 2.17998 2.97017 1.39998 3.04017ZM1.41995 2.8604C-0.210055 3.0504 0.309945 0.490403 1.15995 0.210403C1.70995 0.0304027 2.08995 0.980403 2.16995 1.4204C2.30995 2.0704 2.14995 2.7704 1.41995 2.8604Z" fill="#E6E7E8"/>
<path fill-rule="evenodd" clip-rule="evenodd" d="M0.669942 2.18011C0.339942 1.31011 0.509942 2.81011 1.17994 2.68011C1.17994 2.68011 1.18994 2.68011 1.19994 2.68011C1.23994 2.68011 1.22994 2.65011 1.19994 2.64011C1.04994 2.61011 0.769942 2.45011 0.669942 2.18011Z" fill="#E6E7E8"/>
</g>
<defs>
<clipPath id="clip0_48_151">
<rect width="2.2" height="3.05" fill="white" transform="translate(0.189941)"/>
</clipPath>
</defs>
</svg>
