<?xml version="1.0" encoding="UTF-8"?>
<svg id="Layer_2" data-name="Layer 2" xmlns="http://www.w3.org/2000/svg" viewBox="0 0 2.07 4.55">
  <defs>
    <style>
      .cls-1 {
        fill: #fff;
        fill-rule: evenodd;
        stroke-width: 0px;
      }
    </style>
  </defs>
  <g id="Layer_1-2" data-name="Layer 1">
    <path class="cls-1" d="m.98,1.64C.94,1.35.48.92,0,.93c-.04.58.42.98.97,1.03.02.13.04.34-.01.44-.12-.06-.09-.18-.36-.38-.15-.12-.35-.19-.6-.18,0,.43.23.75.57.91.13.07.29.08.39.12,0,.08,0,.15,0,.23l-.03.2c-.06-.05-.31-.57-.93-.56-.06.52.36.93.94,1.03,0,.39-.09.29.08.77l.09-.27c.06-.2,0-.41-.01-.49.2-.09.38-.03.68-.32.14-.14.32-.42.29-.72-.63-.03-.85.52-.96.56l-.02-.44c.34-.06.51-.13.7-.33.14-.14.32-.46.27-.73-.51-.02-.77.33-.97.66l-.02-.5c.13-.05.27-.04.41-.11.33-.15.63-.56.58-.94-.22-.01-.47.1-.61.2-.09.06-.15.12-.21.21-.07.09-.1.19-.16.27-.08-.16.05-.26.12-.37.07-.12.13-.26.14-.43.02-.29-.11-.73-.31-.8-.31.22-.4.8-.16,1.22.11.19.16.12.12.42Z"/>
  </g>
</svg>