<?xml version="1.0" encoding="UTF-8"?>
<svg id="Layer_2" data-name="Layer 2" xmlns="http://www.w3.org/2000/svg" viewBox="0 0 2.6 3.2">
  <defs>
    <style>
      .cls-1, .cls-2 {
        fill-rule: evenodd;
        stroke-width: 0px;
      }

      .cls-2 {
        fill: #fff;
      }
    </style>
  </defs>
  <g id="Layer_1-2" data-name="Layer 1">
    <path class="cls-2" d="m.14,0C.05.03.02.13,0,.24c-.03.27.03.73.09.98.09.41.22.74.4,1.05.27.44.72.83,1.26.92.11.02.23.02.34,0,.12-.02.18-.05.26-.11.11-.08.18-.38.21-.51.1-.53,0-1-.32-1.41-.14-.17-.29-.31-.46-.45-.04-.03-.07-.05-.11-.08-.28-.2-.63-.37-.97-.49C.61.11.22-.03.14,0Z"/>
    <path class="cls-1" d="m2.01,1.8s0,0,0,0h0v-.02h0s.07.11.09.14l.22.38s.01.02.02.04l.03.04c0-.29-.28-.65-.45-.86-.11-.14-.28-.3-.41-.43l-.39-.33c-.07-.06-.5-.39-.55-.42.01.03.4.37.43.39.02.01.03.03.05.04l.24.22s.03.03.05.05c.02.01.03.02.05.04.2.2.4.38.57.61.02.03.02.02.03.06,0,.02.02.04.03.07Z"/>
    <path class="cls-1" d="m1.25,1.52c-.03-.08-.46-.64-.56-.81-.04-.08-.2-.34-.28-.34-.01.08.17.43.24.51.03.05.07.09.11.14.06.08.31.32.4.41.01.01.02.02.03.03l.05.06s0,0,.01,0Z"/>
    <path class="cls-1" d="m1.55,2.78s-.14-.13-.17-.16c-.02-.01-.03-.02-.04-.04l-.13-.12s-.02-.02-.02-.02c0-.01,0,0,0-.02,0-.02-.03-.02-.05-.04-.09-.07-.26-.41-.32-.52-.09-.19-.18-.39-.27-.57l-.05-.11s0,0,0,0c.02.07.14.41.17.5.12.3.27.6.49.83l.08.08s.06.05.09.07c.07.05.13.09.22.11Z"/>
    <path class="cls-1" d="m2.16,2.68c0-.08-.12-.33-.16-.39-.05-.09-.17-.25-.28-.27l.15.14s.02.02.03.03c.02.01.02.02.03.04.09.12.2.41.23.46Z"/>
    <path class="cls-1" d="m1.55,2.39s-.04-.04-.06-.06c-.02-.02-.05-.04-.07-.06-.1-.09-.18-.28-.24-.41l-.04-.09c.02.09.1.3.15.37.05.1.15.23.27.26Z"/>
  </g>
</svg>