<?xml version="1.0" encoding="UTF-8"?>
<svg id="Layer_2" data-name="Layer 2" xmlns="http://www.w3.org/2000/svg" viewBox="0 0 3.19 3.5">
  <defs>
    <style>
      .cls-1 {
        fill: #fff;
        fill-rule: evenodd;
        stroke-width: 0px;
      }
    </style>
  </defs>
  <g id="Layer_1-2" data-name="Layer 1">
    <path class="cls-1" d="m2.95,3.5H.28v-.22h2.66v.22Zm-2.56-.1h2.46v-.02H.39v.02Z"/>
    <path class="cls-1" d="m2.9,2.32h-.02c-.21,0-.42-.02-.63-.08-.15-.05-.28-.13-.42-.27-.01,0-.01-.02-.02-.02,0-.01-.01-.02-.02-.02,0,0-.01-.01-.02-.02-.05-.05-.07-.11-.09-.18-.02-.07.02-.1.05-.12.05-.02.08-.07.08-.12,0-.11.08-.16.14-.19.08-.04.17-.07.29-.08.27-.02.5-.01.73.04.06.01.11.04.16.07.03.02.05.06.06.09.02.31-.05.6-.21.86-.02.02-.05.05-.08.05Zm-1-.43h0c.13.14.25.22.38.25.2.06.4.07.61.07h.01c.14-.24.21-.51.19-.8,0,0,0,0,0-.01-.05-.02-.09-.05-.14-.06-.21-.05-.44-.06-.69-.04-.1.01-.18.03-.25.07-.06.03-.08.07-.08.11,0,.09-.05.17-.14.21.02.06.04.11.07.15.01.01.02.02.02.02,0,0,.01.02.03.03Z"/>
    <path class="cls-1" d="m1.57,2.98s-.07,0-.11,0c-.02,0-.07,0-.1-.05-.15-.27-.22-.54-.24-.82,0-.15.03-.26.11-.36.03-.04.07-.05.1-.05.07,0,.15-.02.22-.02h.12s.02.03.02.03c.09.28.31.46.66.55.1.03.21.04.31.05.05,0,.1,0,.14.01.01,0,.02,0,.03,0h.12s-.07.1-.07.1c0,.01-.01.02-.02.03-.23.27-.52.43-.9.51-.12.02-.25.04-.39.04Zm.04-1.22h-.04c-.07.01-.15.02-.22.03-.02,0-.03,0-.03.01-.06.07-.09.17-.08.29.01.27.09.52.22.78h.02c.17,0,.32,0,.47-.03.34-.07.61-.21.82-.44-.03,0-.07,0-.11-.01-.11,0-.22-.02-.32-.04-.37-.09-.61-.28-.72-.58Z"/>
    <path class="cls-1" d="m1.4,2.98l-.17-.03c-.06-.01-.11-.02-.17-.04-.29-.07-.52-.19-.71-.36-.04-.03-.05-.07-.04-.11.06-.29.24-.52.54-.68.05-.02.09-.04.14-.07.09-.04.1-.04.21-.02h.04s.01.06.01.06v.03c-.11.15-.11.32-.09.47.03.2.09.4.19.61,0,0,0,.01.01.02l.04.1Zm-.29-1.21s-.04,0-.08.02c-.04.02-.09.04-.13.06-.27.14-.43.34-.48.61v.02c.18.16.4.26.67.33.05.01.1.02.15.03-.09-.2-.15-.39-.18-.59-.02-.15-.03-.32.06-.48Z"/>
    <path class="cls-1" d="m.31,2.52l-.07-.07c-.07-.08-.12-.15-.16-.24-.11-.25-.12-.51-.03-.8.01-.03.04-.06.07-.06.23-.01.49-.02.75.05h.02c.07.02.11.07.11.15,0,.01.01.03.02.05,0,.01.01.02.02.04l.02.05-.05.02c-.38.15-.6.38-.69.72l-.02.09Zm-.16-1.07c-.08.26-.08.5.03.73.02.05.05.09.08.13.11-.31.32-.53.67-.68-.01-.03-.02-.05-.02-.09s0-.03-.02-.03c-.01,0-.02,0-.03,0-.24-.07-.49-.07-.7-.05Z"/>
    <path class="cls-1" d="m1.39.81c-.08,0-.15-.01-.21-.02-.04,0-.06-.03-.07-.04-.06-.06-.11-.12-.16-.19-.02-.02-.03-.07,0-.1.1-.14.21-.29.35-.39.03-.02.06-.04.1-.05.06-.02.12-.01.17.02.08.05.09.12.05.21-.03.05-.06.1-.11.16.04,0,.07,0,.11,0,.1.01.13.07.15.11.02.08,0,.15-.05.2-.04.04-.09.06-.14.07-.07.02-.13.03-.19.03Zm-.36-.31c.05.06.1.12.16.19.1.02.24.03.37,0,.03,0,.07-.03.1-.05.03-.03.02-.06.01-.09,0,0,0-.03-.06-.04-.03,0-.06,0-.09,0-.03,0-.06,0-.09.01l-.23.03.14-.12c.09-.07.15-.16.19-.24.02-.04.02-.05-.02-.08-.01,0-.04-.02-.07,0-.03,0-.05.02-.08.04-.12.09-.22.21-.32.35Z"/>
    <path class="cls-1" d="m.99,1.47l-.05-.02c-.23-.09-.46-.09-.71-.08H.08l.03-.07s.01-.03.02-.04c.07-.15.17-.29.29-.42.02-.02.07-.04.1-.03.17.04.34.11.52.23.04.03.05.06.04.1-.02.07-.03.14-.05.2l-.03.13Zm-.63-.21c.19,0,.38,0,.56.07v-.02c.02-.07.04-.13.06-.2-.17-.11-.32-.18-.48-.22-.11.11-.19.23-.26.36h.12Z"/>
    <path class="cls-1" d="m1.08,1.09l-.05-.04c-.14-.09-.27-.16-.41-.21-.02,0-.04-.02-.05-.04,0,0-.01,0-.02-.01l-.04-.04.05-.06s.04-.04.05-.05c.04-.03.08-.06.12-.08.02-.02.05-.04.08-.05.05-.04.09-.02.12.01.04.03.07.07.1.1.04.04.07.07.11.11.02.02.03.07.02.09-.02.05-.03.1-.05.15l-.04.11Zm-.43-.34c.12.04.25.11.38.18.02-.05.04-.09.05-.14-.04-.03-.07-.06-.1-.1-.04-.03-.07-.06-.1-.1-.03.02-.05.03-.07.05-.04.02-.08.05-.12.08,0,0-.02.02-.02.02Z"/>
  </g>
</svg>